<svg id="Layer_1" data-name="Layer 1" xmlns="http://www.w3.org/2000/svg" xmlns:xlink="http://www.w3.org/1999/xlink" viewBox="0 0 556.67 111.02"><defs><style>.cls-1{fill:url(#linear-gradient);}.cls-2{fill:#fff;}</style><linearGradient id="linear-gradient" x1="285.81" y1="127.09" x2="258.45" y2="-28.04" gradientUnits="userSpaceOnUse"><stop offset="0" stop-color="#60a5fa"/><stop offset="1" stop-color="#3b82f6"/></linearGradient></defs><path class="cls-1" d="M99.41,0l62,110.47L84.73,97.13l22.14-10.55,17.36,3L92,34.26,58.74,90.51,1.4,111l54.08-70.7,5.71,9.21ZM101,70.15,74.12,82l17.4-28Z"/><path class="cls-2" d="M228.24,31.85,209,81.24h9.65l4-10.51h22.6l4,10.51h10.16l-19.3-49.39Zm-2.66,31,5-13.39c.24-.63.55-1.49.93-2.6s.78-2.28,1.19-3.52.76-2.35,1-3.32h.36c.24.72.51,1.54.8,2.45s.57,1.81.86,2.7.56,1.71.83,2.45.49,1.36.68,1.84l5,13.39Zm61.49-19.44H296L281.88,81.24h-9.21l-14-37.87h9.21L274,60.43c.29.82.64,1.91,1.05,3.28s.82,2.78,1.26,4.25.79,2.79,1.08,4h.36c.28-1.1.62-2.37,1-3.81s.78-2.86,1.19-4.25.78-2.55,1.12-3.46Zm44.57,31a2.24,2.24,0,0,1-.8-2V54.53a12.07,12.07,0,0,0-1.65-6.48,10.71,10.71,0,0,0-5-4.11,21.7,21.7,0,0,0-8.53-1.44,23.27,23.27,0,0,0-8,1.26,12.25,12.25,0,0,0-5.4,3.64A8.58,8.58,0,0,0,300.31,53v.86a3.53,3.53,0,0,0,.08.72h8.49v-1a3.59,3.59,0,0,1,.58-1.94,4.43,4.43,0,0,1,2.09-1.59,10.92,10.92,0,0,1,4.17-.64,8.38,8.38,0,0,1,4,.75,4.05,4.05,0,0,1,1.84,2,8.27,8.27,0,0,1,.5,3v3.09a70,70,0,0,0-9.54.61A26.24,26.24,0,0,0,305,61a11.79,11.79,0,0,0-4.86,4,11.31,11.31,0,0,0-1.73,6.45A11.09,11.09,0,0,0,299.67,77a8.31,8.31,0,0,0,3.13,3.2,13.13,13.13,0,0,0,4,1.48,19.76,19.76,0,0,0,3.64.39,19.1,19.1,0,0,0,5.21-.64,13.15,13.15,0,0,0,4-1.84,14.24,14.24,0,0,0,2.92-2.7h.43a6.86,6.86,0,0,0,1.44,2.74,6.67,6.67,0,0,0,2.49,1.76,8.61,8.61,0,0,0,3.34.61,12.54,12.54,0,0,0,3.39-.39c.91-.27,1.61-.5,2.09-.69v-6h-2.31A2.86,2.86,0,0,1,331.64,74.33Zm-9.58-8.28a10.54,10.54,0,0,1-.61,3.6,8.07,8.07,0,0,1-1.73,2.81,7.9,7.9,0,0,1-2.81,1.8,10.76,10.76,0,0,1-3.85.64,8,8,0,0,1-3.13-.54,3.92,3.92,0,0,1-1.87-1.51,4.15,4.15,0,0,1-.62-2.27,4.44,4.44,0,0,1,2-3.88,12.6,12.6,0,0,1,5.33-1.88,50.09,50.09,0,0,1,7.31-.5Zm18.65-36.87h8.78V81.24h-8.78Zm49.1,45.15a2.23,2.23,0,0,1-.79-2V54.53a12,12,0,0,0-1.66-6.48,10.63,10.63,0,0,0-5-4.11,21.74,21.74,0,0,0-8.53-1.44,23.32,23.32,0,0,0-8,1.26,12.25,12.25,0,0,0-5.4,3.64A8.63,8.63,0,0,0,358.49,53v.86a3.51,3.51,0,0,0,.07.72h8.5v-1a3.67,3.67,0,0,1,.57-1.94,4.48,4.48,0,0,1,2.09-1.59,10.94,10.94,0,0,1,4.18-.64,8.33,8.33,0,0,1,4,.75,4.05,4.05,0,0,1,1.84,2,8.06,8.06,0,0,1,.5,3v3.09a70.21,70.21,0,0,0-9.54.61A26.17,26.17,0,0,0,363.21,61a11.79,11.79,0,0,0-4.86,4,11.24,11.24,0,0,0-1.73,6.45A11.2,11.2,0,0,0,357.84,77a8.38,8.38,0,0,0,3.13,3.2,13.33,13.33,0,0,0,4,1.48,19.76,19.76,0,0,0,3.64.39,19.12,19.12,0,0,0,5.22-.64,13.38,13.38,0,0,0,4-1.84,14.24,14.24,0,0,0,2.92-2.7h.43a6.86,6.86,0,0,0,1.44,2.74A6.72,6.72,0,0,0,385,81.42a8.66,8.66,0,0,0,3.35.61,12.51,12.51,0,0,0,3.38-.39c.92-.27,1.61-.5,2.09-.69v-6h-2.3A2.89,2.89,0,0,1,389.81,74.33Zm-9.58-8.28a10.31,10.31,0,0,1-.61,3.6,7.47,7.47,0,0,1-4.53,4.61,10.81,10.81,0,0,1-3.86.64,8,8,0,0,1-3.13-.54,4,4,0,0,1-1.87-1.51,4.15,4.15,0,0,1-.61-2.27,4.44,4.44,0,0,1,2-3.88,12.55,12.55,0,0,1,5.33-1.88,50,50,0,0,1,7.3-.5Zm50-18.07a15.93,15.93,0,0,1,1.59,7.7V81.24H423v-24a10,10,0,0,0-.47-3.34,5.16,5.16,0,0,0-1.36-2.16,5.22,5.22,0,0,0-2.2-1.19,10.71,10.71,0,0,0-2.88-.36,8.1,8.1,0,0,0-4.28,1.15,8.39,8.39,0,0,0-3,3.17,9.53,9.53,0,0,0-1.11,4.68v22h-8.79V43.37h7.35l.72,5h.5a15.3,15.3,0,0,1,3.06-3.06,13.88,13.88,0,0,1,4-2.09,15.86,15.86,0,0,1,5-.76,14.94,14.94,0,0,1,6.37,1.3A9.44,9.44,0,0,1,430.27,48Zm17.79,13.89v.94a21.93,21.93,0,0,0,.9,6.77,7.6,7.6,0,0,0,2.84,4.06A8.87,8.87,0,0,0,456.91,75a8.28,8.28,0,0,0,4.07-.9,6,6,0,0,0,2.49-2.7,10,10,0,0,0,.86-4.32h8.5a17.51,17.51,0,0,1-1.08,6.33,12.53,12.53,0,0,1-3.17,4.75,13.9,13.9,0,0,1-5.08,3,21.29,21.29,0,0,1-6.8,1A20.43,20.43,0,0,1,446.87,80,13.21,13.21,0,0,1,441,73.46a27.75,27.75,0,0,1-1.94-11.16,27.16,27.16,0,0,1,2-11.19,13.4,13.4,0,0,1,5.9-6.48,20.28,20.28,0,0,1,9.76-2.13,22.56,22.56,0,0,1,6.77.94,13.62,13.62,0,0,1,5.07,2.84A12.1,12.1,0,0,1,471.75,51a18.2,18.2,0,0,1,1.08,6.55H463.9a10.71,10.71,0,0,0-.79-4.39,5.62,5.62,0,0,0-2.42-2.63,8.46,8.46,0,0,0-4.14-.9A7.28,7.28,0,0,0,449,55.07,21.83,21.83,0,0,0,448.06,61.87ZM511.71,48a16,16,0,0,1,1.58,7.7V81.24h-8.86v-24a10.27,10.27,0,0,0-.46-3.34,5.28,5.28,0,0,0-1.37-2.16,5.16,5.16,0,0,0-2.2-1.19,10.71,10.71,0,0,0-2.88-.36,8.1,8.1,0,0,0-4.28,1.15,8.47,8.47,0,0,0-3,3.17,9.53,9.53,0,0,0-1.11,4.68v22h-8.79V29.18h8.79V47.69h.5A14.1,14.1,0,0,1,492.48,45a14.74,14.74,0,0,1,3.78-1.83A15.24,15.24,0,0,1,501,42.5a14.94,14.94,0,0,1,6.37,1.3A9.51,9.51,0,0,1,511.71,48Zm43.56,13.89a27.48,27.48,0,0,0-1.88-11,12.71,12.71,0,0,0-5.58-6.3,18.71,18.71,0,0,0-9.18-2.06,21.43,21.43,0,0,0-10.08,2.13,13.43,13.43,0,0,0-6,6.48,26.63,26.63,0,0,0-2,11.19,26.68,26.68,0,0,0,2,11.16,13.44,13.44,0,0,0,6,6.52,21.44,21.44,0,0,0,10.08,2.12,23.66,23.66,0,0,0,6.56-.86,15.93,15.93,0,0,0,5.29-2.59A11.79,11.79,0,0,0,554,74.26,14.56,14.56,0,0,0,555.27,68h-8.64a7.66,7.66,0,0,1-.62,3.17,6.12,6.12,0,0,1-1.69,2.27,7.08,7.08,0,0,1-2.52,1.33,10.64,10.64,0,0,1-3.09.43A10,10,0,0,1,533.49,74a7,7,0,0,1-2.92-3.6,18.76,18.76,0,0,1-1.08-5.94h25.78Zm-25.64-3.6a14.7,14.7,0,0,1,1.37-5,6.46,6.46,0,0,1,2.92-2.88,10.69,10.69,0,0,1,4.71-.93,9.31,9.31,0,0,1,3.1.47,5.48,5.48,0,0,1,2.34,1.54,7.53,7.53,0,0,1,1.51,2.74,13.15,13.15,0,0,1,.54,4Z"/></svg>
