<svg id="Layer_1" data-name="Layer 1" xmlns="http://www.w3.org/2000/svg" viewBox="0 0 107.13 92.27"><defs><style>.cls-1,.cls-2,.cls-3,.cls-6{fill:none;}.cls-1{stroke:#fff;}.cls-1,.cls-2,.cls-3{stroke-miterlimit:10;stroke-width:3.45px;}.cls-2{stroke:#000;}.cls-3{stroke:#dc2626;}.cls-4{fill:#fff;}.cls-5{fill:#dc2626;}</style></defs><line class="cls-1" x1="26.08" y1="91.62" x2="26.08" y2="82.37"/><path class="cls-2" d="M53.8,77"/><path class="cls-3" d="M53.89,63v4.3l-9,.1v-.25c0-3.1,0-5.78-2.18-8.38A16.76,16.76,0,0,1,38.36,48,15.47,15.47,0,0,1,53.62,32.55,15.7,15.7,0,0,1,69.28,47.39c.18,4.48-2.31,8-4.45,11.5a14.4,14.4,0,0,0-2.47,8.32v7H48.55a4,4,0,0,0-4,3.66,3.91,3.91,0,0,0,3.91,4.17h17.2a3.78,3.78,0,0,1,3.78,3.78h0a3.79,3.79,0,0,1-3.78,3.79H31.57"/><polyline class="cls-1" points="39.96 74.23 26.09 74.23 26.09 82.06 39.96 82.06"/><line class="cls-1" x1="68.04" y1="74.23" x2="84.76" y2="74.23"/><line class="cls-1" x1="76.56" y1="74.69" x2="76.56" y2="92.27"/><path class="cls-4" d="M62.87,48.79a21.9,21.9,0,0,1-1,5.69c0,.1-.07.12-.16.09l-1.51-.48c-.09,0-.12-.05-.09-.14a19.21,19.21,0,0,0,.79-3.82,11.69,11.69,0,0,0,0-2.71,7.1,7.1,0,0,0-1.76-3.87,7.22,7.22,0,0,0-4.53-2.43,5.14,5.14,0,0,0-.88-.06c-.08,0-.11,0-.1-.11,0-.54,0-1.08,0-1.62,0-.1.05-.11.13-.11a8.62,8.62,0,0,1,3.18.63,9.11,9.11,0,0,1,5.68,6.66,10,10,0,0,1,.16,1.08C62.87,48,62.87,48.31,62.87,48.79Z"/><path class="cls-4" d="M57.36,48.71a14.09,14.09,0,0,1-2.47,7.85,12.68,12.68,0,0,1-2.36,2.55s-1.46,1-2.33,1.49-1.64.84-2.37,1.15a5.84,5.84,0,0,0-.12-.84,5.13,5.13,0,0,0-.32-.94c.59-.26,1.22-.57,1.87-.93s2.09-1.34,2.12-1.36a11.51,11.51,0,0,0,3.92-6.87,11.35,11.35,0,0,0,.23-2.4,1.75,1.75,0,0,0-.87-1.56c-.08-.05-.1-.09,0-.18.27-.47.52-.94.77-1.42,0-.08.08-.09.16,0a3.65,3.65,0,0,1,1.82,3C57.37,48.37,57.36,48.54,57.36,48.71Z"/><path class="cls-4" d="M53.7,45.65c0,.26,0,.53,0,.8,0,.08,0,.1-.1.11a1.81,1.81,0,0,0-1.74,1.88,8.08,8.08,0,0,1-2.58,6.18,8.62,8.62,0,0,1-2.42,1.53c-.36.16-1.16.44-1.16.44l-.08-.09-1-1.32c-.06-.07,0-.07.74-.39a12.17,12.17,0,0,0,1.9-.89,5.92,5.92,0,0,0,2.61-3.78A6.64,6.64,0,0,0,50,48.46a3.72,3.72,0,0,1,3.38-3.73c.29,0,.29,0,.29.26Z"/><path class="cls-4" d="M45.46,49.33h-.93v-.14a16.36,16.36,0,0,1,.7-4.25A11.93,11.93,0,0,1,46,43.52a8.41,8.41,0,0,1,2.54-2.7,8.71,8.71,0,0,1,3.39-1.43c.09,0,.11,0,.13.08.1.53.19,1.06.3,1.59,0,.11,0,.12-.1.14a6.67,6.67,0,0,0-2.08.76,7.34,7.34,0,0,0-3.7,5.24,10.4,10.4,0,0,0-.09,1.93c0,.2,0,.2-.2.2Z"/><path class="cls-4" d="M65.58,48.42c0,.28,0,.55,0,.82,0,.1,0,.12-.14.12-.52,0-1-.08-1.57-.1-.12,0-.13,0-.13-.16a10.53,10.53,0,0,0-.11-2.31,10,10,0,0,0-3-5.69q-.33-.32-.69-.6c-.08-.06-.08-.1,0-.18.32-.41.64-.83.95-1.25.07-.09.11-.09.2,0a11.91,11.91,0,0,1,3.72,5.11A11.45,11.45,0,0,1,65.58,48.42Z"/><path class="cls-4" d="M43.62,53c0-.26,0-.53,0-.8,0-.09,0-.12.12-.12A5.19,5.19,0,0,0,45,51.9a3,3,0,0,0,2-1.65,3.42,3.42,0,0,0,.35-1.7,6.26,6.26,0,0,1,.54-2.77,8.84,8.84,0,0,1,.46-.86c0-.06.07-.08.15,0,.45.31.91.61,1.37.91.08.06.07.1,0,.17a4.76,4.76,0,0,0-.72,2.58,5.23,5.23,0,0,1-2.34,4.56,4.59,4.59,0,0,1-1.82.66,9.75,9.75,0,0,1-1.2.12c-.1,0-.13,0-.13-.13C43.62,53.5,43.62,53.24,43.62,53Z"/><path class="cls-4" d="M60.08,49.46a18.9,18.9,0,0,1-.57,3.43,16.42,16.42,0,0,1-2.95,6l-.27.35c0,.05-.08.07-.15,0l-1.22-1c-.06,0-.07-.08,0-.15a14.48,14.48,0,0,0,3-6.26,16.41,16.41,0,0,0,.35-2.42c0-.1,0-.12.13-.11l1.6.11C60,49.36,60.1,49.36,60.08,49.46Z"/><path class="cls-4" d="M53.69,36.47a12,12,0,0,1,5.53,1.37c.1,0,.11.09.06.18-.25.46-.5.92-.74,1.39,0,.08-.08.09-.16.05a9.77,9.77,0,0,0-3.06-1,10.06,10.06,0,0,0-2.39-.1,10.33,10.33,0,0,0-2.85.64c-.08,0-.11,0-.15-.06-.2-.51-.4-1-.61-1.52,0-.08,0-.11.06-.13a11.63,11.63,0,0,1,3-.71C52.8,36.51,53.26,36.48,53.69,36.47Z"/><path class="cls-4" d="M48.64,39.63c0,.06-.06.07-.1.09A10.18,10.18,0,0,0,44.6,44c-.05.11-.09.13-.21.08-.46-.22-.93-.43-1.4-.63-.09,0-.12-.07-.07-.17a11.88,11.88,0,0,1,4.7-5.2c.09,0,.13-.06.19.05.25.46.52.92.78,1.38A.22.22,0,0,1,48.64,39.63Z"/><path class="cls-4" d="M53.59,42a6.57,6.57,0,0,1,2.14.34c.1,0,.11.06.08.14-.19.5-.37,1-.55,1.49,0,.09-.06.12-.16.09a4.48,4.48,0,0,0-4.38.87c-.07.06-.1.07-.16,0L49.5,43.68c-.07-.07,0-.11,0-.15a6.25,6.25,0,0,1,2.91-1.44A5.26,5.26,0,0,1,53.59,42Z"/><path class="cls-4" d="M53,54.44C52.06,56.86,47,59,47,59s-.48-1-.73-1.51c-.06-.12-.05-.17.08-.23.9-.45,2.87-1,4-2.38a9,9,0,0,0,1-1.35s0-.09.09-.1l.16.11a4.72,4.72,0,0,0,.82.52C53,54.3,53.07,54.29,53,54.44Z"/><path class="cls-4" d="M54.61,48.7a12.1,12.1,0,0,1-1,4.39c0,.09-.07.1-.17.06l-1.43-.64c-.09,0-.1-.08-.06-.17a9.72,9.72,0,0,0,.78-3.91.92.92,0,1,1,1.83,0Z"/><path class="cls-4" d="M59.18,48.09l-.78,0c-.09,0-.12,0-.13-.12a4.52,4.52,0,0,0-1.16-2.69,4.4,4.4,0,0,0-.76-.67c-.08,0-.1-.09,0-.17.29-.45.59-.9.87-1.35.06-.09.1-.08.17,0a6.45,6.45,0,0,1,2.71,4.42c0,.14,0,.27,0,.4s0,.13-.1.13C59.73,48.05,59.45,48.07,59.18,48.09Z"/><path class="cls-4" d="M54,59a10.52,10.52,0,0,1-1.28,1A19.41,19.41,0,0,1,48,62.46v1.87a16.81,16.81,0,0,0,4.36-1.87,9.7,9.7,0,0,0,3-2.31Z"/><path class="cls-4" d="M55.8,61.22a16,16,0,0,0,2.49-3.11,16.59,16.59,0,0,0,1.25-2.5l1.76.62a14,14,0,0,1-1.14,2.5,14.44,14.44,0,0,1-3.11,3.73Z"/><polygon class="cls-4" points="53.97 25.19 53.97 20.35 52.52 20.35 52.52 18.57 53.97 18.57 53.97 13.73 52.52 13.73 52.52 12.07 53.97 12.07 53.97 8.08 52.52 8.08 52.52 0 56.6 0 56.6 8.08 55.11 8.08 55.11 12.07 56.6 12.07 56.6 13.73 55.11 13.73 55.11 18.57 56.6 18.57 56.6 20.35 55.11 20.35 55.11 25.19 56.6 25.19 56.6 26.96 55.11 26.96 55.11 28.42 53.97 28.42 53.97 26.96 52.52 26.96 52.52 25.19 53.97 25.19"/><polygon class="cls-5" points="76.7 48.57 81.54 48.57 81.54 47.12 83.31 47.12 83.31 48.57 88.16 48.57 88.16 47.12 89.81 47.12 89.81 48.57 93.81 48.57 93.81 47.12 107.13 47.12 107.13 51.2 93.81 51.2 93.81 49.71 89.81 49.71 89.81 51.2 88.16 51.2 88.16 49.71 83.31 49.71 83.31 51.2 81.54 51.2 81.54 49.71 76.7 49.71 76.7 51.2 74.92 51.2 74.92 49.71 73.47 49.71 73.47 48.57 74.92 48.57 74.92 47.12 76.7 47.12 76.7 48.57"/><polygon class="cls-5" points="30.43 49.76 25.59 49.76 25.59 51.2 23.81 51.2 23.81 49.76 18.97 49.76 18.97 51.2 17.32 51.2 17.32 49.76 13.32 49.76 13.32 51.2 0 51.2 0 47.12 13.32 47.12 13.32 48.62 17.32 48.62 17.32 47.12 18.97 47.12 18.97 48.62 23.81 48.62 23.81 47.12 25.59 47.12 25.59 48.62 30.43 48.62 30.43 47.12 32.21 47.12 32.21 48.62 33.66 48.62 33.66 49.76 32.21 49.76 32.21 51.2 30.43 51.2 30.43 49.76"/><line class="cls-6" x1="29.72" y1="40.12" x2="26.78" y2="39.98"/><line class="cls-6" x1="25.18" y1="39.9" x2="20.83" y2="39.69"/><line class="cls-6" x1="30.06" y1="43.5" x2="26.78" y2="43.65"/></svg>