<svg id="Layer_1" data-name="Layer 1" xmlns="http://www.w3.org/2000/svg" viewBox="0 0 485.87 488.36"><defs><style>.cls-1{fill:#dc2626;}.cls-2{fill:#030712;}</style></defs><path class="cls-1" d="M243.61,48.31A94,94,0,0,1,287,59.06c.74.39.86.65.45,1.39q-3,5.42-5.83,10.87c-.34.66-.61.72-1.25.39a78.37,78.37,0,0,0-23.92-8A77.27,77.27,0,0,0,237.65,63a78.9,78.9,0,0,0-22.34,5c-.6.23-.89.21-1.15-.47-1.56-4-3.17-8-4.79-12-.25-.61-.1-.81.49-1A92.86,92.86,0,0,1,233,49C236.63,48.6,240.25,48.4,243.61,48.31Z"/><path class="cls-2" d="M330.39,480.11H63.45v-30H330.39a14.66,14.66,0,1,0,0-29.32H195.53a45.9,45.9,0,0,1-33.35-14.45,45.38,45.38,0,0,1-12.26-34.27c1.55-23.94,22.05-42.7,46.67-42.7h93.23V289.29c0-27.41,5.85-47.2,21.57-73,1.69-2.78,3.4-5.55,5.12-8.34,14.75-23.83,28.68-46.34,27.61-73.39C341.93,79,293.4,32.6,237.84,32.6h-1.3c-57.8.76-104.83,48.42-104.83,106.25,0,25.29,10.28,50.4,30.55,74.62,17,20.25,19.93,41.34,20.45,62.1l40.75-.48V256.21h30v48.55L152.8,306v-17.2c0-23.11,0-39.81-13.57-56-24.92-29.77-37.55-61.36-37.55-93.89A136.28,136.28,0,0,1,236.15,2.58c35.08-.44,68.85,13,95.1,37.84s41.49,57.88,42.88,92.92c1.43,36.24-16.37,65-32.08,90.39-1.68,2.72-3.36,5.43-5,8.14-12.85,21.11-17.19,35.6-17.19,57.42v70.09H196.59c-8.69,0-16.18,6.56-16.7,14.61a15.68,15.68,0,0,0,15.64,16.75H330.39a44.69,44.69,0,1,1,0,89.37Z"/><polygon class="cls-1" points="129.22 359.38 129.22 329.36 5.47 329.36 5.47 413.25 5.38 413.25 5.38 485.79 35.41 485.79 35.41 420.77 129.22 420.77 129.22 390.74 35.5 390.74 35.5 359.38 129.22 359.38"/><polygon class="cls-1" points="480.49 329.36 349.4 329.36 349.4 359.38 401.16 359.38 401.16 485.79 431.19 485.79 431.19 359.38 480.49 359.38 480.49 329.36"/><path class="cls-1" d="M308.83,144.86a170,170,0,0,1-7.6,44.66c-.24.77-.51.9-1.23.66q-5.92-1.89-11.87-3.7c-.68-.21-.88-.41-.65-1.14a151.46,151.46,0,0,0,6.17-29.92c.75-7.08,1.29-14.17.35-21.27a56.06,56.06,0,0,0-13.82-30.36,56.93,56.93,0,0,0-35.5-19,42.29,42.29,0,0,0-6.93-.5c-.63,0-.83-.18-.82-.82,0-4.23,0-8.46,0-12.69,0-.81.33-.88,1-.87a67.72,67.72,0,0,1,24.94,4.9q35.58,14.73,44.5,52.27a61.06,61.06,0,0,1,1.25,8.42C308.87,138.31,308.83,141.15,308.83,144.86Z"/><path class="cls-1" d="M265.67,144.3c-.56,22.36-6.57,43-19.38,61.55a98.56,98.56,0,0,1-18.49,19.94c-.12.1-11.5,7.89-18.31,11.67a185.42,185.42,0,0,1-18.55,9,94.44,94.44,0,0,0-3.42-13.92c4.61-2.05,9.52-4.47,14.65-7.32,6-3.37,16.36-10.48,16.6-10.7,17-14.08,26.54-32.42,30.74-53.81a95.68,95.68,0,0,0,1.83-18.82,13.87,13.87,0,0,0-6.81-12.26c-.64-.41-.81-.65-.42-1.36,2.08-3.69,4.08-7.4,6.06-11.14.34-.63.58-.78,1.24-.36,8.77,5.39,13.5,13.21,14.26,23.46C265.74,141.59,265.67,143,265.67,144.3Z"/><path class="cls-1" d="M236.93,120.24c0,2.1,0,4.19,0,6.29,0,.61-.15.81-.79.84-8.05.46-13.64,6.66-13.62,14.75.05,19-6.29,35.35-20.24,48.49-5.54,5.22-12.08,8.88-19,12a65.17,65.17,0,0,1-8.53,3.37c-.66.19-1,.14-1.15-.62-2.73-3.81-5-7.27-7.91-11.29-.39-.56,5.17-1.82,5.78-2.07,5.08-2.07,10.2-4.08,14.86-7,11-7,17.54-17.07,20.49-29.63a54.24,54.24,0,0,0,1.35-13A29.1,29.1,0,0,1,234.71,113c2.22-.2,2.22-.2,2.22,2Z"/><path class="cls-1" d="M225.44,85.35a52.85,52.85,0,0,0-16.34,6c-16,9.18-25.57,23-29,41.11-1,5-.67,10.06-.66,15.11,0,1.58,0,1.56-1.63,1.54-1.83,0-3.67,0-5.5,0-2.17,0-5.16-.08-7.33-.06-.54-11.51.93-23.71,5.53-34.38a113.75,113.75,0,0,1,5.8-11.11c4.94-8.69,11.89-15.45,20-21.12a69.18,69.18,0,0,1,26.54-11.26c.71-.14.92,0,1,.66.77,4.16,1.52,8.32,2.36,12.45C226.39,85.11,226.07,85.23,225.44,85.35Z"/><path class="cls-1" d="M330.14,142c0,2.13,0,4.26,0,6.39,0,.83-.28,1-1,.93-4.1-.31-8.21-.6-12.31-.8-.95,0-1.08-.39-1-1.2a83.28,83.28,0,0,0-.89-18.12,78,78,0,0,0-23.29-44.6,57.68,57.68,0,0,0-5.42-4.71c-.63-.48-.62-.79-.14-1.4q3.79-4.86,7.49-9.8c.53-.72.86-.73,1.54-.18a93,93,0,0,1,29.18,40A91.28,91.28,0,0,1,330.14,142Z"/><path class="cls-1" d="M195,113.7c2.65,1.69,8.43,5.65,12.32,8-3.45,6.14-6.32,14.72-6.38,21.33-.15,14.91-5.75,27.16-18.37,35.76a35.94,35.94,0,0,1-14,6.12,61.53,61.53,0,0,1-8,1c-1.49-2.74-5.81-10.49-7.69-13.8,3.59.06,12.69-.22,16.16-1.11,7.52-1.93,12-8.61,15.31-15.58a25.79,25.79,0,0,0,2.28-12.1A48.86,48.86,0,0,1,191.51,120C192,118.82,194.3,114.74,195,113.7Z"/><path class="cls-1" d="M287,150.12a143.06,143.06,0,0,1-4.46,26.95,128.54,128.54,0,0,1-23.07,46.85c-.72.91-1.48,1.8-2.18,2.71-.36.47-.63.61-1.15.16q-4.74-4.12-9.55-8.18c-.47-.39-.54-.65-.12-1.15,12-14.4,19.37-31,23.41-49.13a128.92,128.92,0,0,0,2.75-19c.05-.76.3-.91,1-.86,4.18.3,8.36.56,12.54.83C286.65,149.37,287.16,149.35,287,150.12Z"/><path class="cls-1" d="M197.3,73.1c-.1.44-.51.52-.82.7a79.77,79.77,0,0,0-30.86,33.83c-.4.85-.7,1.07-1.62.64-3.65-1.71-7.34-3.33-11-5-.65-.29-.89-.51-.51-1.29,8.32-17.17,20.32-31,36.82-40.78.72-.43,1-.47,1.5.35,2,3.63,4.1,7.22,6.16,10.82C197.06,72.64,197.18,72.87,197.3,73.1Z"/><path class="cls-1" d="M236.09,91.43a53,53,0,0,1,16.83,2.63c.72.24.82.48.56,1.15q-2.17,5.82-4.28,11.67c-.25.68-.48.9-1.25.67-12.66-3.78-24.14-1.52-34.36,6.88-.51.42-.77.5-1.24-.05q-4.14-4.8-8.35-9.53c-.54-.6-.26-.85.19-1.23A49.32,49.32,0,0,1,227,92.35,39.85,39.85,0,0,1,236.09,91.43Z"/><path class="cls-1" d="M231.3,189.22C224.14,208.17,184.74,225,184.74,225S181,217.08,179,213.17c-.46-.95-.39-1.34.59-1.8,7.1-3.52,22.56-8.09,31.15-18.68a64,64,0,0,0,8.13-10.57c.2-.27.25-.71.71-.74a6.91,6.91,0,0,1,1.32.83,33.05,33.05,0,0,0,6.4,4.08C231.22,188.12,232,188.05,231.3,189.22Z"/><path class="cls-1" d="M244.12,144.2a94.36,94.36,0,0,1-7.47,34.38c-.31.74-.58.81-1.3.48q-5.59-2.58-11.24-5c-.71-.31-.79-.59-.49-1.31a76.62,76.62,0,0,0,6.15-30.65,7.18,7.18,0,1,1,14.35-.12Z"/><path class="cls-1" d="M280,139.38c-2.06.1-4.11.17-6.17.31-.71.05-.93-.15-1-.88a35.39,35.39,0,0,0-9.1-21.12,31.41,31.41,0,0,0-6-5.24c-.62-.42-.74-.72-.3-1.38,2.31-3.49,4.6-7,6.83-10.54.45-.71.75-.66,1.36-.23A50.32,50.32,0,0,1,286.81,135c.15,1,.22,2.08.37,3.11.11.7-.05,1-.84,1C284.21,139.13,282.08,139.27,280,139.38Z"/><path class="cls-1" d="M239.1,224.78c-10.08,7.8-2.75,2.92-10.08,7.8-17.47,11.65-26.35,15.83-36.62,19.53.69,5.69,1,8.43,1.55,14a120.41,120.41,0,0,0,32.63-14c14.17-8.45,16.82-10.84,23.33-18.15Z"/><path class="cls-1" d="M253.44,242.35a126.26,126.26,0,0,0,29.3-43.95l13.84,4.79a112.15,112.15,0,0,1-9,19.63,113.63,113.63,0,0,1-24.41,29.29Z"/></svg>