<svg id="Layer_1" data-name="Layer 1" xmlns="http://www.w3.org/2000/svg" viewBox="0 0 485.87 488.36"><defs><style>.cls-1{fill:#fff;}</style></defs><polygon class="cls-1" points="126.65 358.75 126.65 328.05 0.1 328.05 0.1 413.84 0 413.84 0 488.03 30.71 488.03 30.71 421.53 126.65 421.53 126.65 390.82 30.81 390.82 30.81 358.75 126.65 358.75"/><polygon class="cls-1" points="485.87 328.05 351.81 328.05 351.81 358.75 404.75 358.75 404.75 488.03 435.45 488.03 435.45 358.75 485.87 358.75 485.87 328.05"/><path class="cls-1" d="M332.37,488.36h-273V457.65h273a15,15,0,1,0,0-30H194.46a46.91,46.91,0,0,1-34.11-14.78,46.32,46.32,0,0,1-12.53-35c1.58-24.48,22.54-43.66,47.72-43.66h95.34v-41c0-28,6-48.27,22.06-74.68,1.72-2.84,3.48-5.68,5.24-8.52,15.08-24.37,29.33-47.39,28.24-75.06C344.17,78.14,294.55,30.71,237.73,30.71H236.4c-59.12.77-107.21,49.51-107.21,108.64,0,25.87,10.51,51.55,31.25,76.32,17.34,20.71,20.38,42.28,20.91,63.5l41.67-.49v-19.3h30.71V309l-103,1.22v-17.6c0-23.63,0-40.71-13.86-57.27-25.49-30.45-38.41-62.76-38.41-96A139.37,139.37,0,0,1,236,0c35.87-.44,70.41,13.28,97.25,38.7s42.43,59.19,43.85,95c1.47,37-16.74,66.47-32.81,92.43q-2.58,4.17-5.12,8.33c-13.14,21.59-17.58,36.4-17.58,58.71V364.9h-126c-8.88,0-16.54,6.7-17.08,14.93a16.05,16.05,0,0,0,16,17.14H332.37a45.7,45.7,0,1,1,0,91.39Z"/><path class="cls-1" d="M214.1,68.41c.27.68.55.7,1.15.47a79,79,0,0,1,22.36-5,78.31,78.31,0,0,1,42.74,8.74c.64.33.91.27,1.25-.39q2.86-5.46,5.83-10.87c.41-.75.29-1-.45-1.4a94.14,94.14,0,0,0-43.4-10.75c-3.37.08-7,.28-10.61.67a92.5,92.5,0,0,0-23.17,5.56c-.58.22-.74.42-.49,1C210.93,60.42,212.54,64.4,214.1,68.41Z"/><path class="cls-1" d="M307.35,128q-8.85-37.54-44.52-52.3a67.86,67.86,0,0,0-25-4.9c-.66,0-1,.06-1,.87,0,4.23,0,8.46,0,12.69,0,.65.19.84.82.83a43.62,43.62,0,0,1,6.94.49,57,57,0,0,1,35.51,19A56,56,0,0,1,294,135.07c.95,7.11.4,14.2-.34,21.28a151.53,151.53,0,0,1-6.18,29.94c-.23.73,0,.94.65,1.14q6,1.81,11.88,3.71c.72.23,1,.11,1.23-.67a169.74,169.74,0,0,0,7.6-44.69c0-3.71,0-6.55-.22-9.39A61.22,61.22,0,0,0,307.35,128Z"/><path class="cls-1" d="M227.76,226.77a98.67,98.67,0,0,0,18.49-20c12.83-18.51,18.84-39.21,19.4-61.58,0-1.35.07-2.72,0-4q-1.14-15.39-14.27-23.47c-.66-.42-.9-.27-1.25.36q-3,5.61-6,11.14c-.39.71-.22,1,.41,1.37a13.9,13.9,0,0,1,6.82,12.27,95.78,95.78,0,0,1-1.83,18.83c-4.21,21.4-13.78,39.75-30.76,53.85-.25.22-10.58,7.32-16.62,10.7-5.13,2.85-10,5.27-14.65,7.33a95.4,95.4,0,0,1,3.42,13.92,186.58,186.58,0,0,0,18.56-9C216.25,234.66,227.63,226.87,227.76,226.77Z"/><path class="cls-1" d="M202.22,191.57c14-13.16,20.31-29.54,20.26-48.53,0-8.09,5.58-14.29,13.62-14.75.65,0,.81-.24.8-.85,0-2.09,0-4.19,0-6.29V116c0-2.24,0-2.24-2.22-2a29.13,29.13,0,0,0-26.53,29.27,54.24,54.24,0,0,1-1.35,13c-2.95,12.57-9.49,22.66-20.5,29.65-4.67,3-9.79,5-14.88,7.05-.6.25-6.17,1.51-5.77,2.07,2.86,4,5.17,7.48,7.91,11.29.16.76.49.81,1.14.63a65.43,65.43,0,0,0,8.55-3.37C190.13,200.45,196.68,196.79,202.22,191.57Z"/><path class="cls-1" d="M209,92.24a52.91,52.91,0,0,1,16.35-6c.63-.12,1-.24.79-1.07-.85-4.14-1.6-8.3-2.37-12.46-.12-.65-.33-.8-1-.66a69.26,69.26,0,0,0-26.56,11.26c-8.08,5.68-15,12.44-20,21.14a113.91,113.91,0,0,0-5.8,11.12c-4.61,10.68-6.07,22.88-5.54,34.4,2.17,0,5.17.06,7.34.06,1.83,0,3.66,0,5.5,0,1.63,0,1.63,0,1.63-1.54,0-5.05-.29-10.11.66-15.12C183.45,115.26,193,101.43,209,92.24Z"/><path class="cls-1" d="M330.16,143a91.24,91.24,0,0,0-5.9-33.49,92.94,92.94,0,0,0-29.19-40c-.69-.55-1-.54-1.54.18q-3.7,4.93-7.5,9.8c-.48.61-.49.93.14,1.41a56.45,56.45,0,0,1,5.42,4.71,78,78,0,0,1,23.31,44.63,83.37,83.37,0,0,1,.89,18.13c-.05.81.08,1.15,1,1.2,4.11.2,8.21.49,12.32.79.76.06,1.06-.1,1-.92C330.13,147.21,330.16,145.08,330.16,143Z"/><path class="cls-1" d="M182.48,179.69c12.63-8.6,18.24-20.86,18.39-35.78.06-6.61,2.93-15.19,6.38-21.34-3.89-2.31-9.67-6.27-12.33-8-.69,1-2.95,5.12-3.48,6.25a49,49,0,0,0-4.87,23.38,25.82,25.82,0,0,1-2.27,12.11c-3.29,7-7.8,13.65-15.33,15.58-3.47.9-12.57,1.17-16.17,1.11,1.88,3.32,6.21,11.07,7.7,13.81a59.17,59.17,0,0,0,8-1A35.79,35.79,0,0,0,182.48,179.69Z"/><path class="cls-1" d="M273.57,149.44c-.7-.05-.95.1-1,.86a127.72,127.72,0,0,1-2.75,19c-4.05,18.18-11.47,34.75-23.42,49.16-.42.5-.35.76.11,1.16q4.81,4.07,9.56,8.18c.53.45.79.31,1.15-.16.71-.92,1.46-1.8,2.18-2.71A128.54,128.54,0,0,0,282.47,178a142.48,142.48,0,0,0,4.47-27c.21-.77-.3-.75-.82-.78C281.94,150,277.75,149.74,273.57,149.44Z"/><path class="cls-1" d="M163.92,109.17c.92.43,1.21.21,1.62-.64a79.7,79.7,0,0,1,30.88-33.85c.3-.18.71-.26.81-.7-.12-.23-.24-.46-.37-.69-2.06-3.61-4.15-7.19-6.16-10.83-.45-.82-.79-.78-1.5-.35-16.51,9.79-28.52,23.63-36.84,40.81-.38.78-.14,1,.51,1.29C156.56,105.84,160.26,107.46,163.92,109.17Z"/><path class="cls-1" d="M212.29,115.29c.48.55.74.47,1.24,0,10.23-8.41,21.71-10.67,34.38-6.89.78.23,1,0,1.25-.67q2.1-5.85,4.29-11.67c.26-.68.16-.92-.56-1.16a53.06,53.06,0,0,0-16.84-2.63,41.11,41.11,0,0,0-9.06.92,49.45,49.45,0,0,0-22.87,11.28c-.44.38-.72.63-.19,1.23C206.75,108.9,209.53,112.09,212.29,115.29Z"/><path class="cls-1" d="M231.25,190.18c.73-1.18-.07-1.1-4-2.93a34,34,0,0,1-6.4-4.08,6.79,6.79,0,0,0-1.32-.84c-.47,0-.52.47-.71.74a64.73,64.73,0,0,1-8.14,10.58c-8.6,10.6-24.06,15.17-31.17,18.69-1,.46-1.05.85-.59,1.8,2,3.91,5.72,11.85,5.72,11.85S224.09,209.13,231.25,190.18Z"/><path class="cls-1" d="M229.72,143a76.53,76.53,0,0,1-6.15,30.66c-.3.73-.22,1,.49,1.31,3.77,1.65,7.52,3.32,11.25,5,.71.33,1,.25,1.3-.48a94.31,94.31,0,0,0,7.47-34.41c0-.75,0-1.5,0-2.24a7.19,7.19,0,1,0-14.36.12Z"/><path class="cls-1" d="M287.17,139c-.15-1-.22-2.08-.37-3.11-2.17-14.56-9.29-26.09-21.21-34.69-.61-.44-.91-.48-1.36.23q-3.36,5.31-6.84,10.54c-.44.67-.32,1,.31,1.38a32.07,32.07,0,0,1,6,5.25,35.37,35.37,0,0,1,9.11,21.13c.06.73.28.94,1,.89,2.05-.14,4.11-.22,6.16-.32s4.26-.25,6.39-.3C287.12,140,287.28,139.7,287.17,139Z"/><path class="cls-1" d="M229,233.57c-17.49,11.65-26.37,15.83-36.65,19.54.69,5.69,1,8.44,1.55,14a120.2,120.2,0,0,0,32.66-14c14.17-8.46,16.82-10.85,23.34-18.17l-10.82-9.18C229,233.57,236.31,228.68,229,233.57Z"/><path class="cls-1" d="M273,218.91a126.65,126.65,0,0,1-19.54,24.43l9.77,9.77a113.49,113.49,0,0,0,24.43-29.32,112.26,112.26,0,0,0,9-19.63l-13.86-4.8A125.88,125.88,0,0,1,273,218.91Z"/></svg>